<svg xmlns="http://www.w3.org/2000/svg" width="512" height="512" viewBox="0 0 512 512">
  <defs>
    <linearGradient id="g" x1="0" y1="0" x2="1" y2="1">
      <stop offset="0" stop-color="#7C3AED"/>
      <stop offset="1" stop-color="#DB2777"/>
    </linearGradient>
  </defs>
  <rect width="512" height="512" rx="112" fill="#0b0b10"/>
  <rect x="40" y="40" width="432" height="432" rx="96" fill="url(#g)"/>
  <path d="M256 392c-8 0-15-3-21-9l-99-99c-33-33-33-86 0-119 30-30 78-32 110-6 32-26 80-24 110 6 33 33 33 86 0 119l-99 99c-6 6-13 9-21 9z" fill="#fff" opacity="0.95"/>
  <path d="M226 214l72 42-72 42z" fill="url(#g)"/>
</svg>
